# xmcd
#
# Track frame offsets:
#	150
#	17973
#	29848
#	47743
#	65683
#	86272
#	102072
#	123320
#	137156
#	156140
#	174921
#	190096
#	207576
#
# Disc length: 2886 seconds
#
# Revision: 2
# Processed by: cddbd v1.5.2PL0 Copyright (c) Steve Scherf et al.
# Submitted via: EZCDAudioConverter 3.1.7.1
#
DISCID=b20b440d
DTITLE=Raimundo Amador - Isla Menor
DYEAR=2003
DGENRE=Flamenc Rock
TTITLE0=Raimundo Amador - Fúmala
TTITLE1=Raimundo Amador and Rosendo - Voy por pilas
TTITLE2=Raimundo Amador - Frito
TTITLE3=Raimundo Amador and Antonio Carmona - Marina
TTITLE4=Raimundo Amador - Isla Menor
TTITLE5=Raimundo Amador - Jefe navajo
TTITLE6=Raimundo Amador - Bulería para Manuel
TTITLE7=Raimundo Amador - Lady piano
TTITLE8=Raimundo Amador - Malaje
TTITLE9=Raimundo Amador and El Guadiana - Tangos de los gitanos
TTITLE10=Raimundo Amador - Los managers
TTITLE11=Raimundo Amador - El diablo sin cuernos
TTITLE12=Raimundo Amador and Horacio e Icasto - A Django
EXTD=
EXTT0=
EXTT1=
EXTT2=
EXTT3=
EXTT4=
EXTT5=
EXTT6=
EXTT7=
EXTT8=
EXTT9=
EXTT10=
EXTT11=
EXTT12=
PLAYORDER=
